# xmcd
#
# Track frame offsets: 
#        150
#        15990
#        33950
#        56337
#        79467
#        99440
#        116365
#        130182
#        170372
#        187222
#        201157
#        225650
#        256837
#
# Disc length: 3610 seconds
#
# Revision: 2
# Processed by: cddbd v1.5.2PL0 Copyright (c) Steve Scherf et al.
# Submitted via: ExactAudioCopyFreeDBPlugin 1.0
#
DISCID=a10e180d
DTITLE=Julian Sas - For the Lost and Found
DYEAR=2000
DGENRE=Rock
TTITLE0=This Time, My Time
TTITLE1=I Ain' t Afraid
TTITLE2=Working Man's Blues
TTITLE3=High And Low
TTITLE4=Direction Blues
TTITLE5=Make My Water
TTITLE6=Spellbound Woman
TTITLE7=Blues For J
TTITLE8=Don't Tell Me No Lies
TTITLE9=Life's Devil Ride
TTITLE10=Driftin' Boogie
TTITLE11=Blues For The Lost And Found
TTITLE12=Restless Heart
EXTD=
EXTT0=
EXTT1=
EXTT2=
EXTT3=
EXTT4=
EXTT5=
EXTT6=
EXTT7=
EXTT8=
EXTT9=
EXTT10=
EXTT11=
EXTT12=
PLAYORDER=
